<mxfile host="app.diagrams.net" modified="2022-09-05T08:49:01.988Z" agent="5.0 (Windows NT 10.0; Win64; x64) AppleWebKit/537.36 (KHTML, like Gecko) Chrome/103.0.0.0 Safari/537.36" etag="wpoBeXVaFxGG2eiLJPPz" version="20.2.7" type="github">
  <diagram id="673T9JtuPFq1ytshvrmU" name="第 1 页">
    <mxGraphModel dx="2569" dy="1222" grid="1" gridSize="10" guides="1" tooltips="1" connect="1" arrows="1" fold="1" page="1" pageScale="1" pageWidth="827" pageHeight="1169" math="0" shadow="0">
      <root>
        <mxCell id="0" />
        <mxCell id="1" parent="0" />
        <mxCell id="lDHP0BzPPkACy-9UNc8i-1" value="" style="verticalLabelPosition=bottom;html=1;verticalAlign=top;align=center;strokeColor=none;fillColor=#00BEF2;shape=mxgraph.azure.mobile;pointerEvents=1;" vertex="1" parent="1">
          <mxGeometry x="120" y="201.25" width="120" height="198.75" as="geometry" />
        </mxCell>
        <mxCell id="lDHP0BzPPkACy-9UNc8i-2" value="" style="verticalLabelPosition=bottom;html=1;verticalAlign=top;align=center;strokeColor=none;fillColor=#00BEF2;shape=mxgraph.azure.mobile_services;pointerEvents=1;" vertex="1" parent="1">
          <mxGeometry x="280" y="201.25" width="120" height="198.75" as="geometry" />
        </mxCell>
        <mxCell id="lDHP0BzPPkACy-9UNc8i-3" value="" style="shape=image;html=1;verticalAlign=top;verticalLabelPosition=bottom;labelBackgroundColor=#ffffff;imageAspect=0;aspect=fixed;image=https://cdn2.iconfinder.com/data/icons/social-media-and-payment/64/-43-128.png" vertex="1" parent="1">
          <mxGeometry x="146.25" y="266.88" width="67.5" height="67.5" as="geometry" />
        </mxCell>
      </root>
    </mxGraphModel>
  </diagram>
</mxfile>
